<?xml version="1.0" encoding="iso-8859-1"?>
<!-- Generator: Adobe Illustrator 19.0.0, SVG Export Plug-In . SVG Version: 6.00 Build 0)  -->
<svg version="1.1" id="Capa_1" xmlns="http://www.w3.org/2000/svg" xmlns:xlink="http://www.w3.org/1999/xlink" x="0px" y="0px"
	 viewBox="0 0 330 330" style="enable-background:new 0 0 330 330;" xml:space="preserve">
<g id="XMLID_816_">
	<polygon id="XMLID_39_" style="fill:#00D7DF;" points="67.745,326.993 48.927,278.066 0,259.247 75.273,183.975 143.018,251.72 	
		"/>
	<polygon id="XMLID_38_" style="fill:#00969B;" points="262.255,326.993 281.073,278.066 330,259.247 254.727,183.975 
		186.982,251.72 	"/>
	<g id="XMLID_817_">
		<polygon id="XMLID_818_" style="fill:#FFEB99;" points="272.383,135.703 243.743,168.314 240.931,211.634 197.611,214.446 
			165,243.085 132.389,214.446 89.069,211.633 86.257,168.314 57.617,135.703 86.257,103.091 89.069,59.771 132.389,56.959 
			165,28.32 197.611,56.959 240.931,59.772 243.743,103.091 		"/>
		<polygon id="XMLID_819_" style="fill:#FFE477;" points="243.743,103.091 240.931,59.772 197.611,56.959 165,28.32 165,243.085 
			197.611,214.446 240.931,211.634 243.743,168.314 272.383,135.703 		"/>
		<path id="XMLID_820_" style="fill:#FFDA44;" d="M277.94,158.196l19.755-22.494l-19.713-22.445l9.633-28.275l-26.85-13.236
			l-1.939-29.872l-29.808-1.935l-13.18-26.807l-28.346,9.629L164.999,3.007l-22.444,19.711l-28.275-9.634l-13.237,26.85
			l-29.872,1.939l-1.935,29.809L42.43,84.863l9.628,28.346l-19.754,22.494l19.71,22.444l-9.633,28.275l26.85,13.236l1.939,29.873
			l29.809,1.935l13.18,26.806l28.346-9.629l22.494,19.755l22.445-19.711l28.275,9.633l13.236-26.85l29.873-1.939l1.935-29.809
			l26.808-13.18L277.94,158.196z M225.182,160.625l-0.952,14.671l-13.189,6.485l-6.485,13.154l-14.634,0.95l-11.043,9.698
			l-13.917-4.741l-13.876,4.713l-11.01-9.67l-14.671-0.952l-6.485-13.189l-13.154-6.485l-0.95-14.634l-9.698-11.043l4.742-13.917
			l-4.713-13.875l9.669-11.01l0.953-14.672l13.188-6.485l6.485-13.153l14.635-0.95l11.043-9.698l13.917,4.741l13.875-4.713
			l11.011,9.67l14.672,0.953l6.485,13.188l13.153,6.485l0.95,14.635l9.698,11.043l-4.741,13.917l4.713,13.875L225.182,160.625z"/>
		<polygon id="XMLID_823_" style="fill:#FFCD00;" points="297.695,135.703 277.983,113.257 287.616,84.983 260.766,71.746 
			258.827,41.875 229.019,39.94 215.839,13.132 187.493,22.761 165,3.008 165,70.551 165.037,70.563 178.911,65.85 189.922,75.519 
			204.594,76.472 211.079,89.66 224.232,96.145 225.182,110.78 234.88,121.823 230.138,135.739 234.852,149.615 225.182,160.625 
			224.23,175.297 211.041,181.781 204.556,194.935 189.922,195.885 178.879,205.583 165,200.854 165,268.397 187.443,248.687 
			215.718,258.32 228.954,231.471 258.827,229.532 260.762,199.723 287.57,186.543 277.94,158.196 		"/>
	</g>
</g>
<g>
</g>
<g>
</g>
<g>
</g>
<g>
</g>
<g>
</g>
<g>
</g>
<g>
</g>
<g>
</g>
<g>
</g>
<g>
</g>
<g>
</g>
<g>
</g>
<g>
</g>
<g>
</g>
<g>
</g>
</svg>
