<?xml version="1.0" encoding="iso-8859-1"?>
<!-- Generator: Adobe Illustrator 19.0.0, SVG Export Plug-In . SVG Version: 6.00 Build 0)  -->
<svg version="1.1" id="Layer_1" xmlns="http://www.w3.org/2000/svg" xmlns:xlink="http://www.w3.org/1999/xlink" x="0px" y="0px"
	 viewBox="0 0 512 512" style="enable-background:new 0 0 512 512;" xml:space="preserve">
<g>
	<g>
		<path style="fill:#F8D832;" d="M166.45,397.241c24.62,47.713,54.572,83.465,89.547,114.759l0.026-0.018
			c34.966-31.285,64.918-67.037,89.529-114.741H166.45z"/>
		<path style="fill:#F8D832;" d="M399.349,291.31c15.934-49.399,24.373-101.429,24.373-154.421v-30.958L255.998,0L88.274,105.931
			v30.958c0,52.992,8.448,105.022,24.373,154.421H399.349z"/>
	</g>
	<g>
		<path style="fill:#C4A316;" d="M361.958,291.31c17.231-49.17,26.456-101.297,26.456-154.412v-11.502L256.001,41.763
			l-132.414,83.633v11.502c0,53.116,9.225,105.242,26.456,154.412H361.958z"/>
		<path style="fill:#C4A316;" d="M208.91,397.241c14.133,28.937,29.793,48.049,47.086,65.845
			c17.293-17.796,32.962-36.908,47.095-65.845H208.91z"/>
	</g>
	<path style="fill:#F8D832;" d="M308.966,167.724c0-29.255-23.711-52.966-52.966-52.966s-52.966,23.711-52.966,52.966
		c0,29.255,23.711,52.966,52.966,52.966S308.966,196.979,308.966,167.724"/>
	<path style="fill:#CA3E49;" d="M61.793,397.241h388.414V291.31H61.793V397.241z"/>
	<g>
		<path style="fill:#9B2432;" d="M61.793,397.241v-61.793H0l35.31,52.966L0,441.379h79.448v-44.138H61.793z"/>
		<path style="fill:#9B2432;" d="M512,335.448h-61.793v61.793h-17.655v44.138H512l-35.31-52.966L512,335.448z"/>
	</g>
	<g>
		<path style="fill:#FFFFFF;" d="M185.379,335.448h-35.31c-4.882,0-8.828-3.946-8.828-8.828s3.946-8.828,8.828-8.828h35.31
			c4.882,0,8.828,3.946,8.828,8.828S190.261,335.448,185.379,335.448"/>
		<path style="fill:#FFFFFF;" d="M273.655,335.448H220.69c-4.882,0-8.828-3.946-8.828-8.828s3.946-8.828,8.828-8.828h52.966
			c4.882,0,8.828,3.946,8.828,8.828S278.537,335.448,273.655,335.448"/>
		<path style="fill:#FFFFFF;" d="M229.517,370.759h-79.448c-4.882,0-8.828-3.946-8.828-8.828c0-4.882,3.946-8.828,8.828-8.828
			h79.448c4.882,0,8.828,3.946,8.828,8.828C238.345,366.813,234.399,370.759,229.517,370.759"/>
		<path style="fill:#FFFFFF;" d="M361.931,370.759h-17.655c-4.882,0-8.828-3.946-8.828-8.828c0-4.882,3.946-8.828,8.828-8.828
			h17.655c4.882,0,8.828,3.946,8.828,8.828C370.759,366.813,366.813,370.759,361.931,370.759"/>
		<path style="fill:#FFFFFF;" d="M308.966,370.759h-44.138c-4.882,0-8.828-3.946-8.828-8.828c0-4.882,3.946-8.828,8.828-8.828
			h44.138c4.882,0,8.828,3.946,8.828,8.828C317.793,366.813,313.847,370.759,308.966,370.759"/>
		<path style="fill:#FFFFFF;" d="M361.931,335.448h-44.138c-4.882,0-8.828-3.946-8.828-8.828s3.946-8.828,8.828-8.828h44.138
			c4.882,0,8.828,3.946,8.828,8.828S366.813,335.448,361.931,335.448"/>
	</g>
	<path style="fill:#F8D832;" d="M256,220.69c-39,0-70.621,31.62-70.621,70.621h141.241C326.621,252.31,295,220.69,256,220.69"/>
</g>
<g>
</g>
<g>
</g>
<g>
</g>
<g>
</g>
<g>
</g>
<g>
</g>
<g>
</g>
<g>
</g>
<g>
</g>
<g>
</g>
<g>
</g>
<g>
</g>
<g>
</g>
<g>
</g>
<g>
</g>
</svg>
